<svg width="375" height="1024" viewBox="0 0 375 1024" fill="none" xmlns="http://www.w3.org/2000/svg">
<path d="M332.395 949.655V826.175C332.395 808.32 326.112 791.528 314.719 778.916C303.326 766.277 288.159 759.322 272.031 759.322H92.7204C78.4675 759.322 65.0819 753.171 55.0017 742.012C44.9215 730.852 39.3657 716.034 39.3657 700.255L39.3657 576.8C39.3657 561.022 44.9215 546.203 55.0017 535.043C65.0819 523.884 78.4675 517.733 92.7204 517.733H272.031C288.159 517.733 303.326 510.778 314.719 498.165C326.136 485.527 332.395 468.762 332.395 450.907V327.426C332.395 309.571 326.112 292.78 314.719 280.167C303.303 267.529 288.159 260.574 272.031 260.574H92.7204C78.4675 260.574 65.0819 254.423 55.0017 243.263C44.9215 232.104 39.3657 217.285 39.3657 201.506L39.3657 78.0261C39.3657 62.2472 44.9215 47.4285 55.0017 36.2691C65.0819 25.1096 78.4675 18.959 92.7204 18.959L172.33 18.959C174.276 18.959 175.847 17.2202 175.847 15.0662C175.847 12.9121 174.276 11.1733 172.33 11.1733L92.7204 11.1733C76.5921 11.1733 61.4249 18.1285 50.032 30.7413C38.6156 43.38 32.333 60.171 32.333 78.0261L32.333 201.48C32.333 219.336 38.6155 236.127 50.0085 248.739C61.4249 261.378 76.5686 268.307 92.697 268.307H272.007C286.26 268.307 299.646 274.458 309.726 285.617C319.806 296.777 325.362 311.595 325.362 327.374V450.855C325.362 466.634 319.806 481.452 309.726 492.612C299.646 503.771 286.26 509.922 272.007 509.922H92.697C76.5686 509.922 61.4015 516.877 50.0085 529.49C38.5921 542.128 32.333 558.893 32.333 576.749L32.333 700.203C32.333 718.058 38.6155 734.849 50.0085 747.462C61.4249 760.1 76.5686 767.056 92.697 767.056H272.007C286.26 767.056 299.646 773.206 309.726 784.366C319.806 795.525 325.362 810.344 325.362 826.123V949.603C325.362 965.382 319.806 980.201 309.726 991.36C299.646 1002.52 286.26 1008.67 272.007 1008.67H192.397C190.451 1008.67 188.881 1010.41 188.881 1012.56C188.881 1014.72 190.451 1016.46 192.397 1016.46H272.007C288.136 1016.46 303.303 1009.5 314.696 996.888C326.112 984.301 332.395 967.51 332.395 949.655Z" fill="#B3B3C4" fill-opacity="0.24"/>
<path d="M329.415 431.691C353.423 431.691 372.885 412.229 372.885 388.221C372.885 364.213 353.423 344.751 329.415 344.751C305.407 344.751 285.945 364.213 285.945 388.221C285.945 412.229 305.407 431.691 329.415 431.691Z" fill="#CAE6F6" stroke="white" stroke-width="3.06006"/>
<path d="M309.024 370.061H326.696C326.967 370.061 327.186 370.279 327.186 370.55V381.425C327.186 381.695 326.967 381.914 326.696 381.914H309.024C308.754 381.914 308.535 381.695 308.535 381.425V370.55C308.535 370.279 308.754 370.061 309.024 370.061ZM309.514 372.721C310.35 372.532 311.006 371.874 311.195 371.039H309.514V372.721ZM312.183 380.936H323.537C323.75 379.56 324.831 378.479 326.207 378.266V373.708C324.831 373.494 323.75 372.414 323.537 371.038H312.183C311.97 372.414 310.889 373.494 309.514 373.708V378.266C310.889 378.479 311.97 379.561 312.183 380.936ZM324.525 371.039C324.714 371.875 325.371 372.533 326.207 372.721V371.039H324.525ZM326.207 379.254C325.371 379.443 324.714 380.101 324.525 380.936H326.207V379.254ZM311.195 380.936C311.006 380.1 310.35 379.442 309.514 379.254V380.936H311.195ZM326.696 383.654H309.024V384.633H326.696V383.654ZM326.696 386.373H309.024V387.352H326.696V386.373ZM317.864 372.779C319.634 372.779 321.072 374.219 321.072 375.987C321.072 377.756 319.633 379.196 317.864 379.196C316.096 379.196 314.656 377.756 314.656 375.987C314.656 374.219 316.094 372.779 317.864 372.779ZM317.864 378.217C319.093 378.217 320.094 377.216 320.094 375.987C320.094 374.759 319.095 373.758 317.864 373.758C316.634 373.758 315.635 374.759 315.635 375.987C315.635 377.216 316.635 378.217 317.864 378.217ZM341.16 389.581H342.139V378.718C342.139 376.943 340.699 375.498 338.931 375.498H331.956L335.198 372.255L334.506 371.563L330.082 375.987L334.498 380.414L335.191 379.722L331.954 376.477H338.931C340.159 376.477 341.16 377.483 341.16 378.718V389.581ZM317.67 392.3H316.69V397.737C316.69 399.507 318.129 400.946 319.898 400.946H329.59L326.348 404.188L327.041 404.881L331.466 400.456L327.043 396.031L326.35 396.725L329.592 399.967H319.899C318.67 399.967 317.67 398.968 317.67 397.737V392.3ZM333.004 408.612H333.982C333.982 405.161 336.322 402.123 339.673 401.224C339.867 401.173 340.01 401.008 340.032 400.807C340.055 400.608 339.954 400.415 339.776 400.32C338.472 399.62 337.661 398.27 337.661 396.794C337.661 394.585 339.454 392.789 341.657 392.789C343.861 392.789 345.654 394.585 345.654 396.794C345.654 398.27 344.844 399.622 343.539 400.32C343.362 400.414 343.26 400.608 343.283 400.807C343.306 401.007 343.449 401.173 343.642 401.224C346.983 402.12 349.316 405.157 349.316 408.612H350.295C350.295 405.058 348.106 401.894 344.863 400.599C345.973 399.664 346.634 398.28 346.634 396.794C346.634 394.047 344.402 391.809 341.659 391.809C338.916 391.809 336.684 394.047 336.684 396.794C336.684 398.28 337.343 399.664 338.453 400.599C335.199 401.896 333.004 405.06 333.004 408.612Z" fill="#0060A2"/>
<path d="M329.415 937.095C353.423 937.095 372.885 917.633 372.885 893.625C372.885 869.617 353.423 850.155 329.415 850.155C305.407 850.155 285.945 869.617 285.945 893.625C285.945 917.633 305.407 937.095 329.415 937.095Z" fill="#FFF1CF" stroke="white" stroke-width="3.06006"/>
<path d="M329.415 914.506C340.929 914.506 350.295 905.14 350.295 893.626C350.295 882.112 340.929 872.746 329.415 872.746C317.901 872.746 308.535 882.112 308.535 893.626C308.535 905.14 317.901 914.506 329.415 914.506ZM329.415 873.725C340.389 873.725 349.316 882.652 349.316 893.626C349.316 904.599 340.389 913.527 329.415 913.527C318.442 913.527 309.514 904.6 309.514 893.626C309.514 882.652 318.442 873.725 329.415 873.725ZM329.415 910.428C338.679 910.428 346.217 902.89 346.217 893.626C346.217 884.362 338.679 876.824 329.415 876.824C320.151 876.824 312.613 884.362 312.613 893.626C312.613 902.89 320.151 910.428 329.415 910.428ZM328.926 899.534V909.442C320.588 909.187 313.854 902.453 313.599 894.115H323.507C323.744 896.995 326.046 899.297 328.926 899.534ZM345.23 894.115C344.976 902.453 338.241 909.187 329.904 909.442V899.534C332.783 899.297 335.086 896.995 335.321 894.115H345.23V894.115ZM329.415 888.678C332.143 888.678 334.363 890.898 334.363 893.626C334.363 896.354 332.143 898.574 329.415 898.574C326.687 898.574 324.467 896.354 324.467 893.626C324.467 890.898 326.687 888.678 329.415 888.678ZM323.507 893.137H313.599C313.858 884.637 320.854 877.803 329.415 877.803C337.976 877.803 344.972 884.637 345.23 893.137H335.321C335.071 890.097 332.518 887.699 329.415 887.699C326.311 887.699 323.757 890.097 323.507 893.137Z" fill="#FFBA0E"/>
<path d="M192.652 1013.03C192.652 1019.13 187.704 1024.08 181.602 1024.08C175.499 1024.08 170.552 1019.13 170.552 1013.03C170.552 1006.93 175.499 1001.98 181.602 1001.98C187.704 1001.98 192.652 1006.93 192.652 1013.03Z" fill="#3C3883" stroke="white" stroke-width="3.06006"/>
<path d="M44.585 175.039C68.5928 175.039 88.0549 155.577 88.0549 131.569C88.0549 107.562 68.5928 88.0994 44.585 88.0994C20.5772 88.0994 1.11499 107.562 1.11499 131.569C1.11499 155.577 20.5772 175.039 44.585 175.039Z" fill="#E5F4E7" stroke="white" stroke-width="3.06006"/>
<path d="M27.663 151.84H31.7411C32.0116 151.84 32.2305 151.621 32.2305 151.351V146.403H58.4392L58.4392 151.351C58.4392 151.621 58.6581 151.84 58.9286 151.84H63.0067C63.2772 151.84 63.4961 151.621 63.4961 151.351V145.913C63.4961 145.882 63.4934 145.851 63.4879 145.822C64.3144 145.24 64.8555 144.279 64.8555 143.194V132.319C64.8555 130.676 63.613 129.317 62.0185 129.133L58.3291 116.836C58.0926 116.048 57.3803 115.518 56.5578 115.518H34.1118C33.2894 115.518 32.5771 116.048 32.3406 116.835L28.6512 129.132C27.0553 129.315 25.8129 130.675 25.8129 132.318V143.193C25.8129 144.278 26.3539 145.239 27.1817 145.821C27.1763 145.849 27.1722 145.881 27.1722 145.912V151.349C27.1736 151.621 27.3925 151.84 27.663 151.84ZM31.2517 150.861H28.1537V146.283C28.4297 146.362 28.7219 146.404 29.0237 146.404H31.2531L31.2517 150.861ZM62.5173 150.861H59.418L59.418 146.403H61.6473C61.9491 146.403 62.2414 146.36 62.5173 146.282L62.5173 150.861ZM31.7411 145.424H29.0223C27.7935 145.424 26.793 144.425 26.793 143.194V132.319C26.793 131.093 27.7867 130.096 29.0115 130.09C29.0223 130.089 29.0278 130.09 29.0346 130.09H61.6365C61.6419 130.09 61.6514 130.09 61.6582 130.09C62.8817 130.096 63.8767 131.093 63.8767 132.319V143.194C63.8767 144.423 62.8762 145.424 61.6473 145.424H31.7411ZM60.9894 129.111H29.6789L32.6492 119.215H58.0205L60.9894 129.111ZM57.7269 118.236H32.9428L33.2785 117.116C33.3887 116.751 33.7312 116.495 34.1118 116.495H56.5578C56.9453 116.495 57.2797 116.745 57.3911 117.116L57.7269 118.236ZM33.1005 139.606C34.8704 139.606 36.3086 138.166 36.3086 136.398C36.3086 134.629 34.869 133.189 33.1005 133.189C31.3319 133.189 29.8923 134.628 29.8923 136.398C29.8923 138.167 31.3306 139.606 33.1005 139.606ZM33.1005 134.168C34.3293 134.168 35.3298 135.167 35.3298 136.398C35.3298 137.628 34.3307 138.627 33.1005 138.627C31.8702 138.627 30.8711 137.628 30.8711 136.398C30.8711 135.167 31.8716 134.168 33.1005 134.168ZM57.5692 139.606C59.3378 139.606 60.7773 138.166 60.7773 136.398C60.7773 134.629 59.3378 133.189 57.5692 133.189C55.8007 133.189 54.3611 134.628 54.3611 136.398C54.3611 138.167 55.8007 139.606 57.5692 139.606ZM57.5692 134.168C58.7981 134.168 59.7986 135.167 59.7986 136.398C59.7986 137.628 58.7981 138.627 57.5692 138.627C56.3403 138.627 55.3398 137.626 55.3398 136.398C55.3398 135.169 56.3403 134.168 57.5692 134.168ZM37.1786 127.371C37.3254 127.371 37.4722 127.305 37.5687 127.177L41.6469 121.788C41.81 121.572 41.7678 121.266 41.5517 121.103C41.341 120.94 41.0324 120.98 40.8666 121.198L36.7885 126.587C36.6253 126.803 36.6675 127.109 36.8836 127.272C36.972 127.339 37.0753 127.371 37.1786 127.371ZM35.8192 124.897C35.9674 124.897 36.1156 124.829 36.2107 124.7L38.9295 121.057C39.0912 120.841 39.0477 120.534 38.8302 120.372C38.6155 120.212 38.3082 120.254 38.1465 120.471L35.4277 124.114C35.266 124.33 35.3095 124.638 35.527 124.799C35.6153 124.866 35.7173 124.897 35.8192 124.897ZM26.3036 143.684H64.3661V142.705H26.3036V143.684ZM38.538 138.246H52.1317V137.268H38.538V138.246ZM38.538 135.528H52.1317V134.549H38.538V135.528ZM27.1736 126.882H28.1523V122.804H27.1722L27.1736 126.882ZM62.5173 126.882H63.4961V122.804H62.5173C62.5173 122.804 62.5173 126.882 62.5173 126.882Z" fill="#008D10"/>
<path d="M44.585 687.328C68.5928 687.328 88.0549 667.866 88.0549 643.858C88.0549 619.85 68.5928 600.388 44.585 600.388C20.5772 600.388 1.11499 619.85 1.11499 643.858C1.11499 667.866 20.5772 687.328 44.585 687.328Z" fill="#FFE8EC" stroke="white" stroke-width="3.06006"/>
<path d="M44.5848 664.739C44.7017 664.739 44.82 664.697 44.9138 664.611C45.531 664.051 60.0273 650.731 60.0273 638.422C60.0273 629.906 53.1 622.979 44.5848 622.979C36.0697 622.979 29.1423 629.906 29.1423 638.422C29.1423 649.374 43.6224 663.979 44.2396 664.596C44.3334 664.69 44.4598 664.739 44.5848 664.739ZM44.5848 623.958C52.5603 623.958 59.0486 630.446 59.0486 638.422C59.0486 649.269 46.8251 661.44 44.5998 663.563C42.4085 661.285 30.1211 648.077 30.1211 638.422C30.1211 630.446 36.6094 623.958 44.5848 623.958ZM44.5848 644.348C47.8528 644.348 50.5117 641.689 50.5117 638.422C50.5117 635.154 47.8528 632.495 44.5848 632.495C41.3169 632.495 38.658 635.154 38.658 638.422C38.658 641.689 41.3169 644.348 44.5848 644.348ZM44.5848 633.473C47.3131 633.473 49.533 635.693 49.533 638.422C49.533 641.15 47.3131 643.37 44.5848 643.37C41.8566 643.37 39.6367 641.15 39.6367 638.422C39.6367 635.693 41.8566 633.473 44.5848 633.473Z" fill="#FF1546"/>
<path d="M174.33 0.510636C174.635 0.569501 174.562 0.555486 175.018 0.645185C175.236 0.684428 175.498 0.734884 175.42 1.17217C175.303 1.8365 174.923 3.0138 174.749 3.49313C174.733 3.54078 174.716 3.58843 174.699 3.63889L204.938 3.63889C205.938 3.63889 209.582 4.78255 209.582 8.61998V23.2661C209.582 26.8681 205.938 27.0952 204.938 27.0952L174.668 27.0952C174.694 27.1737 174.722 27.2493 174.749 27.3222C174.923 27.7987 175.303 28.976 175.42 29.6404C175.498 30.0805 175.236 30.1281 175.018 30.1702C174.562 30.2571 174.635 30.243 174.33 30.2991C172.97 30.5598 172.796 28.5948 172.796 28.5948L172.497 27.0251C169.586 26.7644 162.916 25.5535 162.916 20.0986V10.6326C162.916 5.6487 169.597 4.12943 172.503 3.75101L172.794 2.21772C172.796 2.21772 172.967 0.252752 174.33 0.510636ZM205.782 22.7588C206.218 20.4434 206.218 10.3719 205.782 8.05376C205.687 7.53799 205.287 7.19882 204.921 7.29132C203.75 7.57443 202.577 7.85474 201.406 8.13505V22.6775C202.577 22.9606 203.75 23.2409 204.921 23.524C205.287 23.6165 205.687 23.2774 205.782 22.7588ZM202.284 25.4582L199.526 23.1708H192.889V25.4582H202.284ZM191.713 25.4582V23.1708H181.193L178.435 25.4582H191.713ZM164.098 20.1379C164.098 22.2038 165.403 23.3586 167.051 24.0006C167.278 23.9109 167.473 23.7511 167.328 23.2998C167.051 22.4645 166.347 21.0153 166.037 20.4294C165.685 19.7679 165.392 18.9354 164.101 18.6887V20.1379H164.098ZM164.098 10.6747V12.1238C165.389 11.8772 165.682 11.0475 166.034 10.3831C166.347 9.80009 167.051 8.35089 167.325 7.51837C167.473 7.06427 167.278 6.9101 167.049 6.81479C165.406 7.4567 164.098 8.61157 164.098 10.6747ZM171.796 7.2773C171.12 10.8989 171.12 19.9164 171.796 23.538C171.947 24.3453 172.573 24.8751 173.14 24.7322C175.009 24.2837 176.879 23.8352 178.748 23.3839C179.318 23.2409 179.667 22.6551 179.558 22.0748C179.061 19.4203 179.061 11.395 179.558 8.74052C179.667 8.15747 179.318 7.57443 178.748 7.43147C176.881 6.98017 175.012 6.53168 173.14 6.08038C172.573 5.94023 171.947 6.47001 171.796 7.2773ZM178.435 5.35718L181.193 7.64731L191.713 7.64731V5.35718L178.435 5.35718V5.35718ZM192.887 5.35718V7.64731L199.526 7.64731L202.284 5.35718L192.887 5.35718V5.35718Z" fill="#3C3883"/>
</svg>
