<svg width="20" height="18" viewBox="0 0 20 18" fill="none" xmlns="http://www.w3.org/2000/svg">
<path d="M12.88 18C12.5649 18.0003 12.2534 17.9382 11.9665 17.818L10.3311 17.132C10.1499 17.0561 9.95324 17.0169 9.75427 17.0169C9.55529 17.0169 9.35862 17.0561 9.17743 17.132L7.54199 17.8173C7.26663 17.9328 6.96848 17.9949 6.66606 17.9996C6.36363 18.0044 6.06336 17.9518 5.78388 17.845C5.5044 17.7383 5.25167 17.5797 5.04136 17.3791C4.83106 17.1785 4.66766 16.9402 4.56131 16.6789L3.93158 15.1262C3.86184 14.9543 3.75295 14.7981 3.61226 14.6683C3.47157 14.5385 3.30234 14.438 3.116 14.3737L1.42981 13.7919C1.1469 13.6935 0.888909 13.5425 0.67182 13.3484C0.454731 13.1542 0.283171 12.9209 0.167773 12.6631C0.0523742 12.4052 -0.00440378 12.1282 0.000957369 11.8493C0.00631852 11.5704 0.0737046 11.2954 0.198939 11.0415L0.942322 9.53238C1.02431 9.36513 1.06672 9.18367 1.06672 9.0001C1.06672 8.81654 1.02431 8.63508 0.942322 8.46783L0.198225 6.95872C0.0730073 6.70476 0.00565446 6.42976 0.000340968 6.15079C-0.00497252 5.87182 0.0518666 5.59482 0.167335 5.33695C0.282804 5.07908 0.45444 4.84584 0.671606 4.65169C0.888772 4.45755 1.14684 4.30663 1.42981 4.2083L3.11457 3.62787C3.30132 3.56353 3.47091 3.46292 3.61187 3.33286C3.75282 3.20279 3.86185 3.0463 3.93158 2.87398L4.56059 1.31936C4.66716 1.05825 4.83071 0.820116 5.04111 0.619726C5.25151 0.419336 5.50428 0.260957 5.78373 0.154409C6.06319 0.04786 6.36338 -0.0045884 6.66571 0.000314628C6.96803 0.00521766 7.26605 0.0673676 7.54127 0.182912L9.17671 0.86887C9.35791 0.944736 9.55458 0.983984 9.75355 0.983984C9.95252 0.983984 10.1492 0.944736 10.3304 0.86887L11.9658 0.183572C12.241 0.068011 12.539 0.00583043 12.8413 0.000883414C13.1436 -0.0040636 13.4437 0.0483284 13.7232 0.154812C14.0026 0.261297 14.2554 0.419604 14.4658 0.619923C14.6763 0.820242 14.8399 1.05831 14.9465 1.31936L15.577 2.872C15.6463 3.04456 15.755 3.20135 15.8957 3.33176C16.0364 3.46218 16.2058 3.56316 16.3925 3.62787L18.0751 4.20961C18.3583 4.30775 18.6166 4.45853 18.834 4.65259C19.0514 4.84665 19.2233 5.07986 19.3389 5.33774C19.4546 5.59563 19.5116 5.87271 19.5065 6.15177C19.5013 6.43084 19.434 6.70595 19.3089 6.96004L18.5655 8.46915C18.4835 8.6364 18.4411 8.81786 18.4411 9.00142C18.4411 9.18499 18.4835 9.36645 18.5655 9.5337L19.3082 11.0428C19.4333 11.2969 19.5006 11.572 19.5058 11.8511C19.5109 12.1301 19.4539 12.4072 19.3382 12.6651C19.2225 12.923 19.0507 13.1562 18.8333 13.3503C18.6159 13.5443 18.3576 13.6951 18.0744 13.7932L16.3918 14.375C16.2055 14.4393 16.0363 14.5398 15.8956 14.6696C15.7549 14.7995 15.646 14.9556 15.5762 15.1276L14.9458 16.6802C14.7878 17.0679 14.5054 17.4019 14.1363 17.6376C13.7672 17.8733 13.3289 17.9995 12.88 17.9993V18ZM9.75427 16.2666C10.0691 16.2666 10.3803 16.3286 10.6671 16.4487L12.3032 17.1346C12.4772 17.2075 12.6655 17.2466 12.8566 17.2495C13.0476 17.2525 13.2372 17.2192 13.4138 17.1517C13.5903 17.0843 13.7499 16.9841 13.8827 16.8573C14.0156 16.7306 14.1188 16.5801 14.186 16.415L14.8164 14.8624C14.9269 14.5903 15.0993 14.3432 15.322 14.1377C15.5446 13.9322 15.8124 13.7732 16.1073 13.6712L17.7899 13.0895C17.9688 13.0275 18.1319 12.9322 18.2693 12.8097C18.4066 12.6871 18.5152 12.5398 18.5883 12.3769C18.6614 12.214 18.6975 12.039 18.6943 11.8628C18.6911 11.6865 18.6487 11.5127 18.5698 11.3521L17.8264 9.84304C17.6963 9.57836 17.6289 9.29108 17.6289 9.00043C17.6289 8.70979 17.6963 8.4225 17.8264 8.15783L18.5698 6.64806C18.6487 6.48752 18.6911 6.31373 18.6943 6.13745C18.6975 5.96118 18.6614 5.78618 18.5883 5.62329C18.5152 5.46041 18.4066 5.31312 18.2693 5.19055C18.1319 5.06798 17.9688 4.97275 17.7899 4.91074L16.1073 4.329C15.8124 4.22705 15.5446 4.06798 15.322 3.86251C15.0993 3.65703 14.9269 3.40992 14.8164 3.13781L14.1853 1.58319C14.1181 1.41815 14.0148 1.26761 13.882 1.14089C13.7492 1.01416 13.5896 0.913965 13.4131 0.8465C13.2365 0.779035 13.0469 0.745741 12.8559 0.748681C12.6648 0.751621 12.4765 0.790733 12.3025 0.863593L10.6671 1.54955C10.3802 1.6692 10.069 1.73109 9.75427 1.73109C9.43948 1.73109 9.12831 1.6692 8.84148 1.54955L7.20532 0.865572C7.03148 0.792664 6.84326 0.75346 6.65233 0.750388C6.4614 0.747316 6.27182 0.78044 6.09533 0.847711C5.91884 0.914983 5.75918 1.01497 5.62626 1.14148C5.49334 1.26799 5.38997 1.41833 5.32256 1.58319L4.6914 3.13781C4.58083 3.40977 4.4085 3.65676 4.18598 3.86222C3.96345 4.06767 3.69587 4.22682 3.4012 4.329L1.71573 4.9114C1.53713 4.97368 1.37427 5.06911 1.23723 5.19178C1.10019 5.31445 0.991875 5.46176 0.918984 5.62459C0.846093 5.78743 0.810175 5.96233 0.813452 6.13848C0.816728 6.31463 0.859129 6.48829 0.938033 6.64872L1.68142 8.15783C1.81155 8.4225 1.87888 8.70979 1.87888 9.00043C1.87888 9.29108 1.81155 9.57836 1.68142 9.84304L0.938033 11.3528C0.859139 11.5132 0.816746 11.6868 0.813476 11.8629C0.810207 12.039 0.846131 12.2139 0.919026 12.3766C0.991922 12.5394 1.10024 12.6867 1.23727 12.8093C1.37431 12.9319 1.53715 13.0273 1.71573 13.0895L3.39834 13.6712C3.69324 13.7732 3.96104 13.9322 4.18372 14.1377C4.40639 14.3432 4.57877 14.5903 4.68926 14.8624L5.3197 16.415C5.3869 16.5801 5.49011 16.7306 5.62294 16.8573C5.75577 16.9841 5.91539 17.0843 6.09191 17.1517C6.26842 17.2192 6.45807 17.2525 6.64911 17.2495C6.84014 17.2466 7.02848 17.2075 7.20246 17.1346L8.8379 16.4487C9.12535 16.3294 9.43692 16.2675 9.75212 16.2673L9.75427 16.2666ZM10.4991 1.21053H10.5077H10.4991Z" fill="#8C84A4"/>
<path d="M6.90911 7.50034C6.50718 7.50034 6.11429 7.39036 5.7801 7.18432C5.44592 6.97827 5.18545 6.68541 5.03164 6.34277C4.87783 6.00013 4.83759 5.62309 4.916 5.25934C4.99441 4.8956 5.18796 4.56147 5.47216 4.29923C5.75636 4.03698 6.11845 3.85839 6.51265 3.78603C6.90685 3.71368 7.31545 3.75081 7.68678 3.89274C8.0581 4.03467 8.37548 4.27501 8.59878 4.58338C8.82207 4.89175 8.94126 5.2543 8.94126 5.62517C8.9405 6.12228 8.72616 6.59883 8.34522 6.95035C7.96428 7.30186 7.44783 7.49964 6.90911 7.50034V7.50034ZM6.90911 4.49994C6.66792 4.49994 6.43216 4.56593 6.23162 4.68957C6.03109 4.81322 5.87479 4.98895 5.7825 5.19456C5.6902 5.40017 5.66605 5.62642 5.7131 5.84469C5.76015 6.06297 5.87629 6.26347 6.04684 6.42083C6.21738 6.5782 6.43466 6.68537 6.6712 6.72878C6.90775 6.7722 7.15294 6.74992 7.37576 6.66475C7.59858 6.57959 7.78903 6.43536 7.92303 6.25032C8.05702 6.06527 8.12854 5.84772 8.12854 5.62517C8.12816 5.32685 7.99956 5.04084 7.77096 4.8299C7.54235 4.61895 7.2324 4.50029 6.90911 4.49994V4.49994Z" fill="#8C84A4"/>
<path d="M12.5986 14.2513C12.1966 14.2513 11.8037 14.1413 11.4696 13.9353C11.1354 13.7292 10.8749 13.4364 10.7211 13.0937C10.5673 12.7511 10.527 12.3741 10.6055 12.0103C10.6839 11.6466 10.8774 11.3124 11.1616 11.0502C11.4458 10.788 11.8079 10.6094 12.2021 10.537C12.5963 10.4647 13.0049 10.5018 13.3762 10.6437C13.7476 10.7856 14.0649 11.026 14.2882 11.3344C14.5115 11.6427 14.6307 12.0053 14.6307 12.3761C14.63 12.8733 14.4156 13.3498 14.0347 13.7013C13.6537 14.0528 13.1373 14.2506 12.5986 14.2513V14.2513ZM12.5986 11.2509C12.3574 11.2509 12.1216 11.3169 11.9211 11.4405C11.7205 11.5642 11.5642 11.7399 11.4719 11.9455C11.3797 12.1511 11.3555 12.3774 11.4026 12.5957C11.4496 12.8139 11.5657 13.0144 11.7363 13.1718C11.9068 13.3292 12.1241 13.4363 12.3607 13.4798C12.5972 13.5232 12.8424 13.5009 13.0652 13.4157C13.288 13.3306 13.4785 13.1863 13.6125 13.0013C13.7465 12.8162 13.818 12.5987 13.818 12.3761C13.8176 12.0778 13.689 11.7918 13.4604 11.5809C13.2318 11.3699 12.9219 11.2513 12.5986 11.2509V11.2509Z" fill="#8C84A4"/>
<path d="M6.90979 13.5009C6.83704 13.5009 6.76564 13.4828 6.70304 13.4486C6.64045 13.4144 6.58896 13.3653 6.55397 13.3065C6.51897 13.2476 6.50176 13.1812 6.50412 13.1141C6.50649 13.047 6.52834 12.9817 6.56741 12.9251L12.2571 4.67448C12.3151 4.5906 12.4067 4.53139 12.5119 4.50986C12.6172 4.48834 12.7274 4.50627 12.8183 4.55971C12.9092 4.61316 12.9733 4.69773 12.9966 4.79483C13.02 4.89193 13.0005 4.9936 12.9426 5.07748L7.25217 13.3274C7.2154 13.3806 7.16468 13.4244 7.10471 13.4547C7.04474 13.4851 6.97746 13.5009 6.90907 13.5009H6.90979Z" fill="#8C84A4"/>
</svg>
