<svg width="22" height="23" viewBox="0 0 22 23" fill="none" xmlns="http://www.w3.org/2000/svg">
<g clip-path="url(#clip0_428_1635)">
<path d="M16.5 9.14844H15.125C15.1244 8.60161 14.9069 8.07736 14.5202 7.69069C14.1336 7.30403 13.6093 7.08654 13.0625 7.08594V5.71094C13.9739 5.71197 14.8476 6.07447 15.492 6.7189C16.1365 7.36333 16.499 8.23707 16.5 9.14844Z" fill="white"/>
<path d="M19.25 9.14844H17.875C17.8736 7.87252 17.3661 6.64927 16.4639 5.74705C15.5617 4.84484 14.3384 4.33736 13.0625 4.33594V2.96094C14.703 2.96276 16.2757 3.61524 17.4357 4.77522C18.5957 5.93521 19.2482 7.50797 19.25 9.14844Z" fill="white"/>
<path d="M17.8752 20.1484H17.7583C4.24896 19.3716 2.33084 7.97281 2.06271 4.49406C2.04194 4.22401 2.07457 3.9525 2.15873 3.69505C2.24289 3.43761 2.37694 3.19926 2.55322 2.99361C2.72949 2.78797 2.94455 2.61906 3.1861 2.49653C3.42766 2.374 3.69098 2.30025 3.96104 2.27949C4.01549 2.27545 4.07021 2.27344 4.12521 2.27344H7.74834C8.02372 2.27317 8.29284 2.3556 8.52083 2.51005C8.74883 2.6645 8.9252 2.88385 9.02709 3.13969L10.0721 5.71094C10.1727 5.96088 10.1977 6.23487 10.1439 6.49888C10.0901 6.76288 9.95996 7.00527 9.76959 7.19594L8.30521 8.67406C8.53302 9.97435 9.15523 11.1731 10.0874 12.1078C11.0197 13.0425 12.2168 13.6678 13.5165 13.8991L15.0083 12.4209C15.2019 12.2327 15.4465 12.1055 15.7118 12.0554C15.9771 12.0053 16.2513 12.0344 16.5002 12.1391L19.0921 13.1772C19.3441 13.2823 19.5591 13.46 19.7097 13.6878C19.8603 13.9155 19.9396 14.1829 19.9377 14.4559V18.0859C19.9377 18.6329 19.7204 19.1576 19.3336 19.5443C18.9468 19.9311 18.4222 20.1484 17.8752 20.1484ZM4.12521 3.64844C4.03493 3.64815 3.94547 3.66565 3.86195 3.69993C3.77843 3.73421 3.70248 3.78461 3.63843 3.84825C3.57439 3.91188 3.5235 3.98751 3.48869 4.07081C3.45387 4.15411 3.4358 4.24345 3.43551 4.33374C3.43551 4.35285 3.43625 4.37192 3.43771 4.39094C3.75396 8.46094 5.78209 18.0859 17.834 18.7734C17.9241 18.7789 18.0144 18.7665 18.0997 18.737C18.1851 18.7075 18.2638 18.6615 18.3313 18.6016C18.3989 18.5417 18.454 18.4691 18.4935 18.3879C18.5329 18.3067 18.5561 18.2185 18.5615 18.1284C18.5623 18.1143 18.5627 18.1001 18.5627 18.0859V14.4559L15.9708 13.4178L13.9977 15.3772L13.6677 15.3359C7.68646 14.5866 6.87521 8.60531 6.87521 8.54344L6.83396 8.21344L8.78646 6.24031L7.75521 3.64844H4.12521Z" fill="white"/>
</g>
<defs>
<clipPath id="clip0_428_1635">
<rect width="22" height="22" fill="white" transform="translate(0 0.210938)"/>
</clipPath>
</defs>
</svg>
