<svg width="22" height="23" viewBox="0 0 22 23" fill="none" xmlns="http://www.w3.org/2000/svg">
<g clip-path="url(#clip0_428_1631)">
<path d="M19.25 4.33594H2.75C2.38533 4.33594 2.03559 4.4808 1.77773 4.73867C1.51987 4.99653 1.375 5.34626 1.375 5.71094V16.7109C1.375 17.0756 1.51987 17.4253 1.77773 17.6832C2.03559 17.9411 2.38533 18.0859 2.75 18.0859H19.25C19.6147 18.0859 19.9644 17.9411 20.2223 17.6832C20.4801 17.4253 20.625 17.0756 20.625 16.7109V5.71094C20.625 5.34626 20.4801 4.99653 20.2223 4.73867C19.9644 4.4808 19.6147 4.33594 19.25 4.33594ZM17.7375 5.71094L11 10.3722L4.2625 5.71094H17.7375ZM2.75 16.7109V6.33656L10.6081 11.7747C10.7232 11.8545 10.8599 11.8973 11 11.8973C11.1401 11.8973 11.2768 11.8545 11.3919 11.7747L19.25 6.33656V16.7109H2.75Z" fill="white"/>
</g>
<defs>
<clipPath id="clip0_428_1631">
<rect width="22" height="22" fill="white" transform="translate(0 0.210938)"/>
</clipPath>
</defs>
</svg>
