<svg width="22" height="23" viewBox="0 0 22 23" fill="none" xmlns="http://www.w3.org/2000/svg">
<g clip-path="url(#clip0_428_1625)">
<path d="M10.9991 16.7109L6.81219 10.7984C6.12688 9.9893 5.68554 9.00211 5.5396 7.95184C5.39365 6.90157 5.54909 5.83145 5.98781 4.86611C6.42654 3.90076 7.13049 3.07993 8.01769 2.49921C8.90489 1.91848 9.93882 1.60176 10.9991 1.58594C12.4688 1.60046 13.8728 2.19685 14.9037 3.24447C15.9346 4.2921 16.5082 5.70557 16.4991 7.17531C16.4996 8.45746 16.0631 9.70149 15.2616 10.7022L10.9991 16.7109ZM10.9991 2.96094C9.89346 2.97363 8.83809 3.42457 8.06468 4.21473C7.29128 5.0049 6.86306 6.06969 6.87406 7.17531C6.87867 8.18444 7.24173 9.1591 7.89844 9.92531L10.9991 14.3184L14.1822 9.83594C14.7873 9.08068 15.1192 8.14304 15.1241 7.17531C15.1351 6.06969 14.7069 5.0049 13.9334 4.21473C13.16 3.42457 12.1047 2.97363 10.9991 2.96094Z" fill="white"/>
<path d="M11 7.77344C11.7594 7.77344 12.375 7.15783 12.375 6.39844C12.375 5.63905 11.7594 5.02344 11 5.02344C10.2406 5.02344 9.625 5.63905 9.625 6.39844C9.625 7.15783 10.2406 7.77344 11 7.77344Z" fill="white"/>
<path d="M19.25 8.46094H17.875V9.83594H19.25V19.4609H2.75V9.83594H4.125V8.46094H2.75C2.38533 8.46094 2.03559 8.6058 1.77773 8.86367C1.51987 9.12153 1.375 9.47126 1.375 9.83594V19.4609C1.375 19.8256 1.51987 20.1753 1.77773 20.4332C2.03559 20.6911 2.38533 20.8359 2.75 20.8359H19.25C19.6147 20.8359 19.9644 20.6911 20.2223 20.4332C20.4801 20.1753 20.625 19.8256 20.625 19.4609V9.83594C20.625 9.47126 20.4801 9.12153 20.2223 8.86367C19.9644 8.6058 19.6147 8.46094 19.25 8.46094Z" fill="white"/>
</g>
<defs>
<clipPath id="clip0_428_1625">
<rect width="22" height="22" fill="white" transform="translate(0 0.210938)"/>
</clipPath>
</defs>
</svg>
