<svg width="628" height="745" viewBox="0 0 628 745" fill="none" xmlns="http://www.w3.org/2000/svg">
<g clip-path="url(#clip0_134_626)">
<rect width="628" height="745" rx="12" fill="white"/>
<g opacity="0.24">
<rect width="19.9808" height="3.23347" transform="matrix(-0.910655 -0.413168 0.496653 -0.867949 179.58 128.489)" fill="#ECB43C"/>
<rect width="7.49056" height="5.7139" transform="matrix(0.889355 0.457216 -0.544035 0.839063 38.6504 262.116)" fill="#C53030" fill-opacity="0.85"/>
<rect width="11.4934" height="5.05336" transform="matrix(0.92355 -0.383478 0.463916 0.885879 201.688 419.606)" fill="#56B8A5" fill-opacity="0.75"/>
<rect width="10.1484" height="4.45827" transform="matrix(0.910655 -0.413168 0.496653 0.867949 253.273 228.709)" fill="#56B8A5" fill-opacity="0.85"/>
<rect width="9.07514" height="5.31481" transform="matrix(0.672804 -0.739821 0.811123 0.584875 43.5801 444.065)" fill="#3DBD96" fill-opacity="0.35"/>
<rect width="5.65701" height="2.56762" transform="matrix(-0.982556 -0.185968 0.232185 -0.972672 46.2617 301.489)" fill="#ECB43C" fill-opacity="0.35"/>
<rect width="9.41583" height="5.1174" transform="matrix(-0.873839 -0.486215 0.574423 -0.818559 86.6465 244.038)" fill="#56B8A5" fill-opacity="0.35"/>
<rect width="25.0826" height="3.15429" transform="matrix(0.995649 0.0931823 -0.117222 0.993106 166.852 86.7297)" fill="#17C974" fill-opacity="0.9"/>
<rect width="5.96601" height="4.65477" transform="matrix(-0.698554 -0.715557 0.790778 -0.612103 61.668 73.606)" fill="#3DBD96" fill-opacity="0.65"/>
<rect width="14.8601" height="5.02162" transform="matrix(-0.94625 -0.323437 0.395874 -0.918305 234.516 312.227)" fill="#3DBD96"/>
<rect width="17.0283" height="2.56139" transform="matrix(-0.990201 -0.139651 0.175122 -0.984547 75.7383 124.909)" fill="#ECB43C"/>
<rect width="22.1836" height="4.40261" transform="matrix(0.956071 -0.293136 0.360665 0.932695 73.0586 487.017)" fill="#56B8A5" fill-opacity="0.45"/>
<rect width="19.7489" height="2.55365" transform="matrix(-0.999517 -0.03108 0.0391871 -0.999232 244.564 407.675)" fill="#FDA5A5" fill-opacity="0.65"/>
<rect width="21.7606" height="2.55335" transform="matrix(-0.999879 -0.0155409 0.0195989 -0.999808 226.127 149.873)" fill="#FFDE17" fill-opacity="0.26"/>
<rect width="24.0833" height="2.59962" transform="matrix(-0.940958 0.338522 -0.413191 -0.910644 57.9375 233.463)" fill="#3DBD96" fill-opacity="0.9"/>
<rect width="10.4758" height="5.24151" transform="matrix(-0.758225 -0.651993 0.735168 -0.677885 250.594 501.334)" fill="#C53030" fill-opacity="0.85"/>
<rect x="6.0625" y="148.175" width="9.83237" height="4.87722" transform="rotate(90 6.0625 148.175)" fill="#3DBD96" fill-opacity="0.9"/>
<rect width="20.0096" height="3.97545" transform="matrix(-0.758225 -0.651993 0.735168 -0.677885 208.389 429.151)" fill="#56B8A5" fill-opacity="0.75"/>
<rect width="13.789" height="3.93536" transform="matrix(0.811123 0.584875 -0.672804 0.739821 5.39453 567.551)" fill="#56B8A5" fill-opacity="0.6"/>
<rect width="9.24899" height="4.20251" transform="matrix(-0.117222 0.993106 -0.995649 -0.0931823 230.496 535.934)" fill="#3DBD96" fill-opacity="0.85"/>
<rect width="6.91724" height="4.8387" transform="matrix(0.306524 0.951863 -0.968915 0.247394 119.285 250.781)" fill="#ECB43C" fill-opacity="0.75"/>
<rect width="18.6253" height="3.9995" transform="matrix(-0.723233 0.690604 -0.769348 -0.63883 47.6016 83.1504)" fill="#FFDE17" fill-opacity="0.26"/>
<rect width="15.1863" height="5.14731" transform="matrix(0.848571 -0.529081 0.618134 0.786073 130.674 421.078)" fill="#C53030" fill-opacity="0.85"/>
<rect width="22.3811" height="2.80117" transform="matrix(0.512681 0.858579 -0.903817 0.427919 237.195 229.306)" fill="#56B8A5" fill-opacity="0.75"/>
<rect width="6.46606" height="4.09007" transform="matrix(0.559352 -0.828931 0.88173 0.471755 215.758 615.872)" fill="#FDA5A5" fill-opacity="0.35"/>
<rect width="5.67964" height="5.53952" transform="matrix(0.998067 -0.0621456 0.0782892 0.996931 69.0391 602.748)" fill="#ECB43C" fill-opacity="0.6"/>
<rect width="10.4293" height="4.87707" transform="matrix(-0.0195989 -0.999808 0.999879 -0.0155409 227.816 404.692)" fill="#FF3333"/>
<rect width="16.6922" height="5.46597" transform="matrix(0.413191 -0.910644 0.940958 0.338522 255.955 237.657)" fill="#56B8A5" fill-opacity="0.35"/>
<rect width="5.30453" height="5.32499" transform="matrix(0.65953 -0.751678 0.82089 0.571087 3.38477 399.323)" fill="#3DBD96" fill-opacity="0.6"/>
<rect width="17.9936" height="3.9995" transform="matrix(-0.723233 -0.690604 0.769348 -0.63883 282.082 312.824)" fill="#3DBD96" fill-opacity="0.6"/>
<rect width="17.8294" height="4.16084" transform="matrix(-0.360665 0.932695 -0.956071 -0.293136 253.273 269.275)" fill="#FFDE17" fill-opacity="0.26"/>
<rect width="8.66684" height="2.8601" transform="matrix(-0.175122 0.984547 -0.990201 -0.139651 262.652 133.261)" fill="#ECB43C" fill-opacity="0.45"/>
<rect width="3.86823" height="3.53632" transform="matrix(-0.058754 -0.998272 0.998913 -0.0466155 114.594 70.0264)" fill="#56B8A5" fill-opacity="0.75"/>
<rect width="23.7602" height="2.64022" transform="matrix(-0.88173 -0.471755 0.559352 -0.828931 204.551 236.738)" fill="#FFDE17" fill-opacity="0.26"/>
<rect width="20.4344" height="2.81385" transform="matrix(-0.463916 -0.885879 0.92355 -0.383478 257.295 417.22)" fill="#CC1616" fill-opacity="0.75"/>
<rect width="3.9432" height="4.14023" transform="matrix(-0.430308 0.902682 -0.935412 -0.353559 125.984 518.634)" fill="#FF5858" fill-opacity="0.45"/>
<rect width="21.9716" height="4.72503" transform="matrix(0.589246 0.807954 -0.865683 0.500592 11.4219 494.175)" fill="#FF5858" fill-opacity="0.45"/>
<rect width="22.5908" height="5.37408" transform="matrix(0.589246 0.807954 -0.865683 0.500592 27.502 158.913)" fill="#FFDE17" fill-opacity="0.26"/>
<rect width="4.57405" height="5.43566" transform="matrix(-0.480396 0.877051 -0.917232 -0.398353 72.2031 202.837)" fill="#3DBD96" fill-opacity="0.65"/>
<rect width="13.5704" height="2.58835" transform="matrix(0.956071 -0.293136 0.360665 0.932695 2.04297 223.34)" fill="#17C974" fill-opacity="0.9"/>
<rect width="17.0454" height="4.35132" transform="matrix(0.994076 0.108685 -0.136599 0.990626 12.0938 296.716)" fill="#3DBD96" fill-opacity="0.6"/>
<rect width="7.00044" height="5.55776" transform="matrix(-0.987897 0.155109 -0.194249 -0.980952 195.66 79.5715)" fill="#ECB43C" fill-opacity="0.75"/>
<rect width="6.56854" height="4.03104" transform="matrix(-0.672804 -0.739821 0.811123 -0.584875 82.4375 160.106)" fill="#56B8A5" fill-opacity="0.35"/>
<rect width="11.0272" height="5.54647" transform="matrix(-0.0391871 0.999232 -0.999517 -0.03108 199.01 175.616)" fill="#C53030" fill-opacity="0.85"/>
<rect width="18.8545" height="5.52982" transform="matrix(-0.194249 0.980952 -0.987897 -0.155109 44.9199 538.32)" fill="#56B8A5" fill-opacity="0.65"/>
<rect width="9.53261" height="5.40166" transform="matrix(-0.544035 0.839063 -0.889355 -0.457216 145.412 445.257)" fill="#3DBD96" fill-opacity="0.85"/>
<rect width="15.5605" height="5.24151" transform="matrix(-0.758225 0.651993 -0.735168 -0.677885 57.6504 618.855)" fill="#ECB43C" fill-opacity="0.75"/>
<rect width="18.0143" height="2.62107" transform="matrix(0.910655 -0.413168 0.496653 0.867949 13.4336 177.406)" fill="#56B8A5"/>
<rect width="5.30453" height="5.96811" transform="matrix(0.65953 -0.751678 0.82089 0.571087 168.861 167.076)" fill="#3DBD96" fill-opacity="0.35"/>
<rect width="19.6436" height="4.16084" transform="matrix(0.360665 0.932695 -0.956071 0.293136 203.029 187.547)" fill="#ECB43C"/>
<rect width="12.4798" height="3.4762" transform="matrix(0.447219 0.894425 -0.92961 0.368545 225.137 306.261)" fill="#ECB43C" fill-opacity="0.6"/>
<rect width="14.2782" height="3.1809" transform="matrix(0.968915 -0.247394 0.306524 0.951863 54.2988 526.985)" fill="#FDA5A5" fill-opacity="0.6"/>
<rect width="22.19" height="4.68188" transform="matrix(0.65953 0.751678 -0.82089 0.571087 237.195 81.3611)" fill="#FF5858" fill-opacity="0.45"/>
<ellipse cx="35.4172" cy="469.01" rx="1.8859" ry="1.67929" fill="#FF3333"/>
<ellipse cx="125.861" cy="141.503" rx="4.5657" ry="4.0655" fill="#3DBD96" fill-opacity="0.65"/>
<ellipse cx="45.4661" cy="390.264" rx="4.5657" ry="4.0655" fill="#3DBD96" fill-opacity="0.35"/>
<ellipse cx="14.6477" cy="199.368" rx="3.89575" ry="3.46895" fill="#FF3333"/>
<ellipse cx="197.211" cy="184.156" rx="4.23072" ry="3.76723" fill="#CC1616" fill-opacity="0.75"/>
<ellipse cx="205.92" cy="423.97" rx="1.55093" ry="1.38102" fill="#ECB43C" fill-opacity="0.45"/>
<ellipse cx="266.215" cy="534.929" rx="2.22088" ry="1.97757" fill="#56B8A5" fill-opacity="0.6"/>
<ellipse cx="154.669" cy="263.796" rx="1.8859" ry="1.67929" fill="#56B8A5" fill-opacity="0.6"/>
<ellipse cx="142.609" cy="532.244" rx="2.55585" ry="2.27585" fill="#FDA5A5" fill-opacity="0.9"/>
<ellipse cx="60.8762" cy="599.058" rx="3.2258" ry="2.8724" fill="#ECB43C" fill-opacity="0.9"/>
<ellipse cx="76.2844" cy="507.785" rx="3.2258" ry="2.8724" fill="#ECB43C" fill-opacity="0.9"/>
<ellipse cx="27.3781" cy="286.465" rx="3.2258" ry="2.8724" fill="#56B8A5" fill-opacity="0.6"/>
<ellipse cx="209.94" cy="99.4453" rx="3.56078" ry="3.17067" fill="#ECB43C" fill-opacity="0.6"/>
<ellipse cx="76.2844" cy="334.785" rx="2.55585" ry="2.27585" fill="#FDA5A5" fill-opacity="0.35"/>
<ellipse cx="232.717" cy="300.484" rx="2.22088" ry="1.97757" fill="#56B8A5" fill-opacity="0.85"/>
<ellipse cx="232.717" cy="170.435" rx="2.22088" ry="1.97757" fill="#3DBD96" fill-opacity="0.75"/>
<ellipse cx="17.3293" cy="237.547" rx="3.89575" ry="3.46895" fill="#56B8A5" fill-opacity="0.65"/>
<ellipse cx="45.4661" cy="544.175" rx="3.89575" ry="3.46895" fill="#FDA5A5" fill-opacity="0.6"/>
<ellipse cx="187.495" cy="510.172" rx="4.5657" ry="4.0655" fill="#3DBD96" fill-opacity="0.9"/>
<ellipse cx="66.9055" cy="574.003" rx="4.5657" ry="4.0655" fill="#3DBD96" fill-opacity="0.6"/>
<ellipse cx="239.081" cy="383.106" rx="1.8859" ry="1.67929" fill="#17C974" fill-opacity="0.9"/>
<ellipse cx="95.3771" cy="71.4073" rx="2.22088" ry="1.97757" fill="#3DBD96" fill-opacity="0.9"/>
<ellipse cx="30.0578" cy="621.727" rx="1.8859" ry="1.67929" fill="#3DBD96" fill-opacity="0.75"/>
<ellipse cx="279.279" cy="365.806" rx="2.55585" ry="2.27585" fill="#ECB43C" fill-opacity="0.75"/>
<ellipse cx="215.969" cy="134.046" rx="1.55093" ry="1.38102" fill="#FDA5A5" fill-opacity="0.65"/>
<ellipse cx="30.7278" cy="114.061" rx="4.5657" ry="4.0655" fill="#FFDE17" fill-opacity="0.26"/>
<ellipse cx="86.6681" cy="161.487" rx="2.22088" ry="1.97757" fill="#ECB43C" fill-opacity="0.6"/>
<ellipse cx="163.713" cy="219.949" rx="1.55093" ry="1.38102" fill="#ECB43C" fill-opacity="0.45"/>
<ellipse cx="254.826" cy="379.825" rx="2.22088" ry="1.97757" fill="#3DBD96" fill-opacity="0.45"/>
<ellipse cx="181.466" cy="619.341" rx="3.89575" ry="3.46895" fill="#FDA5A5" fill-opacity="0.9"/>
<ellipse cx="104.756" cy="157.908" rx="2.22088" ry="1.97757" fill="#FF3333"/>
<ellipse cx="80.6389" cy="354.77" rx="4.23072" ry="3.76723" fill="#ECB43C" fill-opacity="0.75"/>
<ellipse cx="162.706" cy="593.689" rx="4.5657" ry="4.0655" fill="#FF5858" fill-opacity="0.45"/>
<ellipse cx="172.422" cy="333.891" rx="4.23072" ry="3.76723" fill="#56B8A5" fill-opacity="0.65"/>
<ellipse cx="83.9885" cy="449.025" rx="4.23072" ry="3.76723" fill="#56B8A5" fill-opacity="0.35"/>
<ellipse cx="52.8352" cy="503.609" rx="3.2258" ry="2.8724" fill="#FDA5A5" fill-opacity="0.65"/>
<ellipse cx="198.549" cy="614.867" rx="2.22088" ry="1.97757" fill="#ECB43C" fill-opacity="0.9"/>
<ellipse cx="112.127" cy="401.897" rx="2.89083" ry="2.57412" fill="#ECB43C" fill-opacity="0.35"/>
<ellipse cx="277.604" cy="182.366" rx="2.89083" ry="2.57412" fill="#3DBD96" fill-opacity="0.85"/>
<ellipse cx="109.781" cy="340.154" rx="4.5657" ry="4.0655" fill="#FDA5A5" fill-opacity="0.65"/>
<ellipse cx="271.239" cy="610.989" rx="2.55585" ry="2.27585" fill="#FDA5A5" fill-opacity="0.9"/>
<ellipse cx="160.364" cy="147.766" rx="3.56078" ry="3.17067" fill="#FDA5A5" fill-opacity="0.65"/>
<ellipse cx="244.441" cy="432.62" rx="3.89575" ry="3.46895" fill="#CC1616" fill-opacity="0.75"/>
<ellipse cx="267.89" cy="352.085" rx="3.89575" ry="3.46895" fill="#ECB43C" fill-opacity="0.9"/>
<ellipse cx="27.0432" cy="327.329" rx="2.89083" ry="2.57412" fill="#3DBD96" fill-opacity="0.45"/>
<ellipse cx="70.255" cy="470.799" rx="1.8859" ry="1.67929" fill="#3DBD96" fill-opacity="0.9"/>
<ellipse cx="108.441" cy="392.054" rx="3.2258" ry="2.8724" fill="#56B8A5" fill-opacity="0.65"/>
<ellipse cx="110.787" cy="94.673" rx="1.55093" ry="1.38102" fill="#56B8A5" fill-opacity="0.85"/>
<ellipse cx="200.894" cy="78.2679" rx="4.5657" ry="4.0655" fill="#3DBD96" fill-opacity="0.35"/>
<ellipse cx="158.689" cy="599.058" rx="3.89575" ry="3.46895" fill="#3DBD96" fill-opacity="0.6"/>
<ellipse cx="70.255" cy="171.926" rx="1.8859" ry="1.67929" fill="#ECB43C" fill-opacity="0.45"/>
<ellipse cx="69.9201" cy="74.3903" rx="2.89083" ry="2.57412" fill="#FDA5A5" fill-opacity="0.35"/>
<ellipse cx="10.6301" cy="322.258" rx="3.89575" ry="3.46895" fill="#CC1616" fill-opacity="0.75"/>
<ellipse cx="185.821" cy="550.439" rx="4.23072" ry="3.76723" fill="#3DBD96" fill-opacity="0.75"/>
<rect width="19.9808" height="3.23347" transform="matrix(-0.910655 -0.413168 0.496653 -0.867949 541.42 128.489)" fill="#ECB43C"/>
<rect width="7.49056" height="5.7139" transform="matrix(0.889355 0.457216 -0.544035 0.839063 400.49 262.116)" fill="#C53030" fill-opacity="0.85"/>
<rect width="11.4934" height="5.05336" transform="matrix(0.92355 -0.383478 0.463916 0.885879 563.527 419.606)" fill="#56B8A5" fill-opacity="0.75"/>
<rect width="10.1484" height="4.45827" transform="matrix(0.910655 -0.413168 0.496653 0.867949 615.113 228.709)" fill="#56B8A5" fill-opacity="0.85"/>
<rect width="9.07514" height="5.31481" transform="matrix(0.672804 -0.739821 0.811123 0.584875 405.42 444.065)" fill="#3DBD96" fill-opacity="0.35"/>
<rect width="5.65701" height="2.56762" transform="matrix(-0.982556 -0.185968 0.232185 -0.972672 408.1 301.489)" fill="#ECB43C" fill-opacity="0.35"/>
<rect width="11.0365" height="2.55487" transform="matrix(-0.998067 -0.0621456 0.0782892 -0.996931 357.855 306.857)" fill="#56B8A5"/>
<rect width="9.41583" height="5.1174" transform="matrix(-0.873839 -0.486215 0.574423 -0.818559 448.486 244.038)" fill="#56B8A5" fill-opacity="0.35"/>
<rect width="25.0826" height="3.15429" transform="matrix(0.995649 0.0931823 -0.117222 0.993106 528.691 86.7297)" fill="#17C974" fill-opacity="0.9"/>
<rect width="5.96601" height="4.65477" transform="matrix(-0.698554 -0.715557 0.790778 -0.612103 423.508 73.606)" fill="#3DBD96" fill-opacity="0.65"/>
<rect width="14.8601" height="5.02162" transform="matrix(-0.94625 -0.323437 0.395874 -0.918305 596.355 312.227)" fill="#3DBD96"/>
<rect width="17.0283" height="2.56139" transform="matrix(-0.990201 -0.139651 0.175122 -0.984547 437.578 124.909)" fill="#ECB43C"/>
<rect width="22.1836" height="4.40261" transform="matrix(0.956071 -0.293136 0.360665 0.932695 434.898 487.017)" fill="#56B8A5" fill-opacity="0.45"/>
<rect width="19.7489" height="2.55365" transform="matrix(-0.999517 -0.03108 0.0391871 -0.999232 606.404 407.675)" fill="#FDA5A5" fill-opacity="0.65"/>
<rect width="21.7606" height="2.55335" transform="matrix(-0.999879 -0.0155409 0.0195989 -0.999808 587.967 149.873)" fill="#FFDE17" fill-opacity="0.26"/>
<rect width="24.0833" height="2.59962" transform="matrix(-0.940958 0.338522 -0.413191 -0.910644 419.777 233.463)" fill="#3DBD96" fill-opacity="0.9"/>
<rect width="10.4758" height="5.24151" transform="matrix(-0.758225 -0.651993 0.735168 -0.677885 612.434 501.334)" fill="#C53030" fill-opacity="0.85"/>
<rect x="367.902" y="148.175" width="9.83237" height="4.87722" transform="rotate(90 367.902 148.175)" fill="#3DBD96" fill-opacity="0.9"/>
<rect width="20.0096" height="3.97545" transform="matrix(-0.758225 -0.651993 0.735168 -0.677885 570.229 429.151)" fill="#56B8A5" fill-opacity="0.75"/>
<rect width="13.789" height="3.93536" transform="matrix(0.811123 0.584875 -0.672804 0.739821 367.234 567.551)" fill="#56B8A5" fill-opacity="0.6"/>
<rect width="9.24899" height="4.20251" transform="matrix(-0.117222 0.993106 -0.995649 -0.0931823 592.336 535.934)" fill="#3DBD96" fill-opacity="0.85"/>
<rect width="6.91724" height="4.8387" transform="matrix(0.306524 0.951863 -0.968915 0.247394 481.125 250.781)" fill="#ECB43C" fill-opacity="0.75"/>
<rect width="18.6253" height="3.9995" transform="matrix(-0.723233 0.690604 -0.769348 -0.63883 409.441 83.1504)" fill="#FFDE17" fill-opacity="0.26"/>
<rect width="15.1863" height="5.14731" transform="matrix(0.848571 -0.529081 0.618134 0.786073 492.514 421.078)" fill="#C53030" fill-opacity="0.85"/>
<rect width="22.3811" height="2.80117" transform="matrix(0.512681 0.858579 -0.903817 0.427919 599.035 229.306)" fill="#56B8A5" fill-opacity="0.75"/>
<rect width="6.46606" height="4.09007" transform="matrix(0.559352 -0.828931 0.88173 0.471755 577.598 615.872)" fill="#FDA5A5" fill-opacity="0.35"/>
<rect width="5.67964" height="5.53952" transform="matrix(0.998067 -0.0621456 0.0782892 0.996931 430.879 602.748)" fill="#ECB43C" fill-opacity="0.6"/>
<rect width="10.4293" height="4.87707" transform="matrix(-0.0195989 -0.999808 0.999879 -0.0155409 589.656 404.692)" fill="#FF3333"/>
<rect width="16.6922" height="5.46597" transform="matrix(0.413191 -0.910644 0.940958 0.338522 617.793 237.657)" fill="#56B8A5" fill-opacity="0.35"/>
<rect width="5.30453" height="5.32499" transform="matrix(0.65953 -0.751678 0.82089 0.571087 365.223 399.323)" fill="#3DBD96" fill-opacity="0.6"/>
<rect width="17.8294" height="4.16084" transform="matrix(-0.360665 0.932695 -0.956071 -0.293136 615.113 269.275)" fill="#FFDE17" fill-opacity="0.26"/>
<rect width="8.66684" height="2.8601" transform="matrix(-0.175122 0.984547 -0.990201 -0.139651 624.492 133.261)" fill="#ECB43C" fill-opacity="0.45"/>
<rect width="3.86823" height="3.53632" transform="matrix(-0.058754 -0.998272 0.998913 -0.0466155 476.434 70.0264)" fill="#56B8A5" fill-opacity="0.75"/>
<rect width="23.7602" height="2.64022" transform="matrix(-0.88173 -0.471755 0.559352 -0.828931 566.389 236.738)" fill="#FFDE17" fill-opacity="0.26"/>
<rect width="20.4344" height="2.81385" transform="matrix(-0.463916 -0.885879 0.92355 -0.383478 619.135 417.22)" fill="#CC1616" fill-opacity="0.75"/>
<rect width="3.9432" height="4.14023" transform="matrix(-0.430308 0.902682 -0.935412 -0.353559 487.824 518.634)" fill="#FF5858" fill-opacity="0.45"/>
<rect width="21.9716" height="4.72503" transform="matrix(0.589246 0.807954 -0.865683 0.500592 373.262 494.175)" fill="#FF5858" fill-opacity="0.45"/>
<rect width="22.5908" height="5.37408" transform="matrix(0.589246 0.807954 -0.865683 0.500592 389.342 158.913)" fill="#FFDE17" fill-opacity="0.26"/>
<rect width="4.57405" height="5.43566" transform="matrix(-0.480396 0.877051 -0.917232 -0.398353 434.043 202.837)" fill="#3DBD96" fill-opacity="0.65"/>
<rect width="13.5704" height="2.58835" transform="matrix(0.956071 -0.293136 0.360665 0.932695 363.883 223.34)" fill="#17C974" fill-opacity="0.9"/>
<rect width="17.0454" height="4.35132" transform="matrix(0.994076 0.108685 -0.136599 0.990626 373.934 296.716)" fill="#3DBD96" fill-opacity="0.6"/>
<rect width="7.00044" height="5.55776" transform="matrix(-0.987897 0.155109 -0.194249 -0.980952 557.5 79.5715)" fill="#ECB43C" fill-opacity="0.75"/>
<rect width="6.56854" height="4.03104" transform="matrix(-0.672804 -0.739821 0.811123 -0.584875 444.277 160.106)" fill="#56B8A5" fill-opacity="0.35"/>
<rect width="11.0272" height="5.54647" transform="matrix(-0.0391871 0.999232 -0.999517 -0.03108 560.85 175.616)" fill="#C53030" fill-opacity="0.85"/>
<rect width="18.8545" height="5.52982" transform="matrix(-0.194249 0.980952 -0.987897 -0.155109 406.76 538.32)" fill="#56B8A5" fill-opacity="0.65"/>
<rect width="9.53261" height="5.40166" transform="matrix(-0.544035 0.839063 -0.889355 -0.457216 507.252 445.257)" fill="#3DBD96" fill-opacity="0.85"/>
<rect width="15.5605" height="5.24151" transform="matrix(-0.758225 0.651993 -0.735168 -0.677885 419.49 618.855)" fill="#ECB43C" fill-opacity="0.75"/>
<rect width="18.0143" height="2.62107" transform="matrix(0.910655 -0.413168 0.496653 0.867949 375.273 177.406)" fill="#56B8A5"/>
<rect width="5.30453" height="5.96811" transform="matrix(0.65953 -0.751678 0.82089 0.571087 530.701 167.076)" fill="#3DBD96" fill-opacity="0.35"/>
<rect width="19.6436" height="4.16084" transform="matrix(0.360665 0.932695 -0.956071 0.293136 564.867 187.547)" fill="#ECB43C"/>
<rect width="12.4798" height="3.4762" transform="matrix(0.447219 0.894425 -0.92961 0.368545 586.977 306.261)" fill="#ECB43C" fill-opacity="0.6"/>
<rect width="14.2782" height="3.1809" transform="matrix(0.968915 -0.247394 0.306524 0.951863 416.139 526.985)" fill="#FDA5A5" fill-opacity="0.6"/>
<rect width="22.19" height="4.68188" transform="matrix(0.65953 0.751678 -0.82089 0.571087 599.035 81.3611)" fill="#FF5858" fill-opacity="0.45"/>
<ellipse cx="397.257" cy="469.01" rx="1.8859" ry="1.67929" fill="#FF3333"/>
<ellipse cx="487.7" cy="141.503" rx="4.5657" ry="4.0655" fill="#3DBD96" fill-opacity="0.65"/>
<ellipse cx="407.306" cy="390.264" rx="4.5657" ry="4.0655" fill="#3DBD96" fill-opacity="0.35"/>
<ellipse cx="376.488" cy="199.368" rx="3.89575" ry="3.46895" fill="#FF3333"/>
<ellipse cx="559.049" cy="184.156" rx="4.23072" ry="3.76723" fill="#CC1616" fill-opacity="0.75"/>
<ellipse cx="567.76" cy="423.97" rx="1.55093" ry="1.38102" fill="#ECB43C" fill-opacity="0.45"/>
<ellipse cx="628.055" cy="534.929" rx="2.22088" ry="1.97757" fill="#56B8A5" fill-opacity="0.6"/>
<ellipse cx="516.509" cy="263.796" rx="1.8859" ry="1.67929" fill="#56B8A5" fill-opacity="0.6"/>
<ellipse cx="504.448" cy="532.244" rx="2.55585" ry="2.27585" fill="#FDA5A5" fill-opacity="0.9"/>
<ellipse cx="422.716" cy="599.058" rx="3.2258" ry="2.8724" fill="#ECB43C" fill-opacity="0.9"/>
<ellipse cx="438.124" cy="507.785" rx="3.2258" ry="2.8724" fill="#ECB43C" fill-opacity="0.9"/>
<ellipse cx="389.218" cy="286.465" rx="3.2258" ry="2.8724" fill="#56B8A5" fill-opacity="0.6"/>
<ellipse cx="571.78" cy="99.4453" rx="3.56078" ry="3.17067" fill="#ECB43C" fill-opacity="0.6"/>
<ellipse cx="438.124" cy="334.785" rx="2.55585" ry="2.27585" fill="#FDA5A5" fill-opacity="0.35"/>
<ellipse cx="594.557" cy="300.484" rx="2.22088" ry="1.97757" fill="#56B8A5" fill-opacity="0.85"/>
<ellipse cx="594.557" cy="170.435" rx="2.22088" ry="1.97757" fill="#3DBD96" fill-opacity="0.75"/>
<ellipse cx="379.169" cy="237.547" rx="3.89575" ry="3.46895" fill="#56B8A5" fill-opacity="0.65"/>
<ellipse cx="407.306" cy="544.175" rx="3.89575" ry="3.46895" fill="#FDA5A5" fill-opacity="0.6"/>
<ellipse cx="549.335" cy="510.172" rx="4.5657" ry="4.0655" fill="#3DBD96" fill-opacity="0.9"/>
<ellipse cx="428.745" cy="574.003" rx="4.5657" ry="4.0655" fill="#3DBD96" fill-opacity="0.6"/>
<ellipse cx="600.921" cy="383.106" rx="1.8859" ry="1.67929" fill="#17C974" fill-opacity="0.9"/>
<ellipse cx="457.217" cy="71.4073" rx="2.22088" ry="1.97757" fill="#3DBD96" fill-opacity="0.9"/>
<ellipse cx="391.898" cy="621.727" rx="1.8859" ry="1.67929" fill="#3DBD96" fill-opacity="0.75"/>
<ellipse cx="577.809" cy="134.046" rx="1.55093" ry="1.38102" fill="#FDA5A5" fill-opacity="0.65"/>
<ellipse cx="392.568" cy="114.061" rx="4.5657" ry="4.0655" fill="#FFDE17" fill-opacity="0.26"/>
<ellipse cx="448.508" cy="161.487" rx="2.22088" ry="1.97757" fill="#ECB43C" fill-opacity="0.6"/>
<ellipse cx="525.553" cy="219.949" rx="1.55093" ry="1.38102" fill="#ECB43C" fill-opacity="0.45"/>
<ellipse cx="616.666" cy="379.825" rx="2.22088" ry="1.97757" fill="#3DBD96" fill-opacity="0.45"/>
<ellipse cx="543.306" cy="619.341" rx="3.89575" ry="3.46895" fill="#FDA5A5" fill-opacity="0.9"/>
<ellipse cx="466.596" cy="157.908" rx="2.22088" ry="1.97757" fill="#FF3333"/>
<ellipse cx="442.477" cy="354.77" rx="4.23072" ry="3.76723" fill="#ECB43C" fill-opacity="0.75"/>
<ellipse cx="524.546" cy="593.689" rx="4.5657" ry="4.0655" fill="#FF5858" fill-opacity="0.45"/>
<ellipse cx="534.262" cy="333.891" rx="4.23072" ry="3.76723" fill="#56B8A5" fill-opacity="0.65"/>
<ellipse cx="445.828" cy="449.025" rx="4.23072" ry="3.76723" fill="#56B8A5" fill-opacity="0.35"/>
<ellipse cx="414.675" cy="503.609" rx="3.2258" ry="2.8724" fill="#FDA5A5" fill-opacity="0.65"/>
<ellipse cx="560.389" cy="614.867" rx="2.22088" ry="1.97757" fill="#ECB43C" fill-opacity="0.9"/>
<ellipse cx="473.965" cy="401.897" rx="2.89083" ry="2.57412" fill="#ECB43C" fill-opacity="0.35"/>
<ellipse cx="471.62" cy="340.154" rx="4.5657" ry="4.0655" fill="#FDA5A5" fill-opacity="0.65"/>
<ellipse cx="522.203" cy="147.766" rx="3.56078" ry="3.17067" fill="#FDA5A5" fill-opacity="0.65"/>
<ellipse cx="606.281" cy="432.62" rx="3.89575" ry="3.46895" fill="#CC1616" fill-opacity="0.75"/>
<ellipse cx="629.73" cy="352.085" rx="3.89575" ry="3.46895" fill="#ECB43C" fill-opacity="0.9"/>
<ellipse cx="388.883" cy="327.329" rx="2.89083" ry="2.57412" fill="#3DBD96" fill-opacity="0.45"/>
<ellipse cx="432.095" cy="470.799" rx="1.8859" ry="1.67929" fill="#3DBD96" fill-opacity="0.9"/>
<ellipse cx="470.28" cy="392.054" rx="3.2258" ry="2.8724" fill="#56B8A5" fill-opacity="0.65"/>
<ellipse cx="472.625" cy="94.673" rx="1.55093" ry="1.38102" fill="#56B8A5" fill-opacity="0.85"/>
<ellipse cx="562.734" cy="78.2679" rx="4.5657" ry="4.0655" fill="#3DBD96" fill-opacity="0.35"/>
<ellipse cx="520.529" cy="599.058" rx="3.89575" ry="3.46895" fill="#3DBD96" fill-opacity="0.6"/>
<ellipse cx="432.095" cy="171.926" rx="1.8859" ry="1.67929" fill="#ECB43C" fill-opacity="0.45"/>
<ellipse cx="431.76" cy="74.3903" rx="2.89083" ry="2.57412" fill="#FDA5A5" fill-opacity="0.35"/>
<ellipse cx="372.47" cy="322.258" rx="3.89575" ry="3.46895" fill="#CC1616" fill-opacity="0.75"/>
<ellipse cx="547.66" cy="550.439" rx="4.23072" ry="3.76723" fill="#3DBD96" fill-opacity="0.75"/>
</g>
</g>
<defs>
<clipPath id="clip0_134_626">
<rect width="628" height="745" fill="white"/>
</clipPath>
</defs>
</svg>
