<svg width="28" height="21" viewBox="0 0 28 21" fill="none" xmlns="http://www.w3.org/2000/svg">
<path d="M26 0.910156H2C1.46957 0.910156 0.960859 1.12087 0.585786 1.49594C0.210714 1.87102 0 2.37972 0 2.91016V18.9102C0 19.4406 0.210714 19.9493 0.585786 20.3244C0.960859 20.6994 1.46957 20.9102 2 20.9102H26C26.5304 20.9102 27.0391 20.6994 27.4142 20.3244C27.7893 19.9493 28 19.4406 28 18.9102V2.91016C28 2.37972 27.7893 1.87102 27.4142 1.49594C27.0391 1.12087 26.5304 0.910156 26 0.910156ZM23.8 2.91016L14 9.69016L4.2 2.91016H23.8ZM2 18.9102V3.82016L13.43 11.7302C13.5974 11.8463 13.7963 11.9085 14 11.9085C14.2037 11.9085 14.4026 11.8463 14.57 11.7302L26 3.82016V18.9102H2Z" fill="#8C84A4"/>
</svg>
